<mxfile host="app.diagrams.net" modified="2023-09-19T20:22:36.818Z" agent="Mozilla/5.0 (Windows NT 10.0; Win64; x64) AppleWebKit/537.36 (KHTML, like Gecko) Chrome/116.0.0.0 Safari/537.36" etag="wTc8fh1fly6y4oY89rzN" version="21.7.5" type="device">
  <diagram name="PÃ¡gina-1" id="riJk9b9Lw7s2BlS8J7DZ">
    <mxGraphModel dx="3225" dy="2504" grid="1" gridSize="10" guides="1" tooltips="1" connect="1" arrows="1" fold="1" page="1" pageScale="1" pageWidth="827" pageHeight="1169" math="0" shadow="0">
      <root>
        <mxCell id="0" />
        <mxCell id="1" parent="0" />
        <mxCell id="YAH1u14mTammRpmIXEb5-1" style="edgeStyle=orthogonalEdgeStyle;rounded=0;orthogonalLoop=1;jettySize=auto;html=1;" edge="1" parent="1" source="YAH1u14mTammRpmIXEb5-2">
          <mxGeometry relative="1" as="geometry">
            <mxPoint x="455" y="-90" as="targetPoint" />
          </mxGeometry>
        </mxCell>
        <mxCell id="YAH1u14mTammRpmIXEb5-2" value="Cliente" style="swimlane;fontStyle=1;align=center;verticalAlign=top;childLayout=stackLayout;horizontal=1;startSize=26;horizontalStack=0;resizeParent=1;resizeParentMax=0;resizeLast=0;collapsible=1;marginBottom=0;whiteSpace=wrap;html=1;" vertex="1" parent="1">
          <mxGeometry x="360" y="80" width="190" height="190" as="geometry" />
        </mxCell>
        <mxCell id="YAH1u14mTammRpmIXEb5-3" value="- nombre: String" style="text;strokeColor=none;fillColor=none;align=left;verticalAlign=top;spacingLeft=4;spacingRight=4;overflow=hidden;rotatable=0;points=[[0,0.5],[1,0.5]];portConstraint=eastwest;whiteSpace=wrap;html=1;" vertex="1" parent="YAH1u14mTammRpmIXEb5-2">
          <mxGeometry y="26" width="190" height="26" as="geometry" />
        </mxCell>
        <mxCell id="YAH1u14mTammRpmIXEb5-4" value="- apellido: String" style="text;strokeColor=none;fillColor=none;align=left;verticalAlign=top;spacingLeft=4;spacingRight=4;overflow=hidden;rotatable=0;points=[[0,0.5],[1,0.5]];portConstraint=eastwest;whiteSpace=wrap;html=1;" vertex="1" parent="YAH1u14mTammRpmIXEb5-2">
          <mxGeometry y="52" width="190" height="26" as="geometry" />
        </mxCell>
        <mxCell id="YAH1u14mTammRpmIXEb5-5" value="- tipoDocumento: TipoDocumento" style="text;strokeColor=none;fillColor=none;align=left;verticalAlign=top;spacingLeft=4;spacingRight=4;overflow=hidden;rotatable=0;points=[[0,0.5],[1,0.5]];portConstraint=eastwest;whiteSpace=wrap;html=1;" vertex="1" parent="YAH1u14mTammRpmIXEb5-2">
          <mxGeometry y="78" width="190" height="26" as="geometry" />
        </mxCell>
        <mxCell id="YAH1u14mTammRpmIXEb5-6" value="- documento: String" style="text;strokeColor=none;fillColor=none;align=left;verticalAlign=top;spacingLeft=4;spacingRight=4;overflow=hidden;rotatable=0;points=[[0,0.5],[1,0.5]];portConstraint=eastwest;whiteSpace=wrap;html=1;" vertex="1" parent="YAH1u14mTammRpmIXEb5-2">
          <mxGeometry y="104" width="190" height="26" as="geometry" />
        </mxCell>
        <mxCell id="YAH1u14mTammRpmIXEb5-7" value="- email: String" style="text;strokeColor=none;fillColor=none;align=left;verticalAlign=top;spacingLeft=4;spacingRight=4;overflow=hidden;rotatable=0;points=[[0,0.5],[1,0.5]];portConstraint=eastwest;whiteSpace=wrap;html=1;" vertex="1" parent="YAH1u14mTammRpmIXEb5-2">
          <mxGeometry y="130" width="190" height="26" as="geometry" />
        </mxCell>
        <mxCell id="YAH1u14mTammRpmIXEb5-8" value="- telefono: String" style="text;strokeColor=none;fillColor=none;align=left;verticalAlign=top;spacingLeft=4;spacingRight=4;overflow=hidden;rotatable=0;points=[[0,0.5],[1,0.5]];portConstraint=eastwest;whiteSpace=wrap;html=1;" vertex="1" parent="YAH1u14mTammRpmIXEb5-2">
          <mxGeometry y="156" width="190" height="26" as="geometry" />
        </mxCell>
        <mxCell id="YAH1u14mTammRpmIXEb5-9" value="" style="line;strokeWidth=1;fillColor=none;align=left;verticalAlign=middle;spacingTop=-1;spacingLeft=3;spacingRight=3;rotatable=0;labelPosition=right;points=[];portConstraint=eastwest;strokeColor=inherit;" vertex="1" parent="YAH1u14mTammRpmIXEb5-2">
          <mxGeometry y="182" width="190" height="8" as="geometry" />
        </mxCell>
        <mxCell id="YAH1u14mTammRpmIXEb5-10" value="Servicio" style="swimlane;fontStyle=1;align=center;verticalAlign=top;childLayout=stackLayout;horizontal=1;startSize=26;horizontalStack=0;resizeParent=1;resizeParentMax=0;resizeLast=0;collapsible=1;marginBottom=0;whiteSpace=wrap;html=1;" vertex="1" parent="1">
          <mxGeometry x="630" y="120" width="250" height="138" as="geometry" />
        </mxCell>
        <mxCell id="YAH1u14mTammRpmIXEb5-11" value="- precioBase: float" style="text;strokeColor=none;fillColor=none;align=left;verticalAlign=top;spacingLeft=4;spacingRight=4;overflow=hidden;rotatable=0;points=[[0,0.5],[1,0.5]];portConstraint=eastwest;whiteSpace=wrap;html=1;" vertex="1" parent="YAH1u14mTammRpmIXEb5-10">
          <mxGeometry y="26" width="250" height="26" as="geometry" />
        </mxCell>
        <mxCell id="YAH1u14mTammRpmIXEb5-12" value="- bajada: int" style="text;strokeColor=none;fillColor=none;align=left;verticalAlign=top;spacingLeft=4;spacingRight=4;overflow=hidden;rotatable=0;points=[[0,0.5],[1,0.5]];portConstraint=eastwest;whiteSpace=wrap;html=1;" vertex="1" parent="YAH1u14mTammRpmIXEb5-10">
          <mxGeometry y="52" width="250" height="26" as="geometry" />
        </mxCell>
        <mxCell id="YAH1u14mTammRpmIXEb5-13" value="- subida: int" style="text;strokeColor=none;fillColor=none;align=left;verticalAlign=top;spacingLeft=4;spacingRight=4;overflow=hidden;rotatable=0;points=[[0,0.5],[1,0.5]];portConstraint=eastwest;whiteSpace=wrap;html=1;" vertex="1" parent="YAH1u14mTammRpmIXEb5-10">
          <mxGeometry y="78" width="250" height="26" as="geometry" />
        </mxCell>
        <mxCell id="YAH1u14mTammRpmIXEb5-14" value="- costoInstalacion: float" style="text;strokeColor=none;fillColor=none;align=left;verticalAlign=top;spacingLeft=4;spacingRight=4;overflow=hidden;rotatable=0;points=[[0,0.5],[1,0.5]];portConstraint=eastwest;whiteSpace=wrap;html=1;" vertex="1" parent="YAH1u14mTammRpmIXEb5-10">
          <mxGeometry y="104" width="250" height="26" as="geometry" />
        </mxCell>
        <mxCell id="YAH1u14mTammRpmIXEb5-15" value="" style="line;strokeWidth=1;fillColor=none;align=left;verticalAlign=middle;spacingTop=-1;spacingLeft=3;spacingRight=3;rotatable=0;labelPosition=right;points=[];portConstraint=eastwest;strokeColor=inherit;" vertex="1" parent="YAH1u14mTammRpmIXEb5-10">
          <mxGeometry y="130" width="250" height="8" as="geometry" />
        </mxCell>
        <mxCell id="YAH1u14mTammRpmIXEb5-17" value="Coordenada" style="swimlane;fontStyle=1;align=center;verticalAlign=top;childLayout=stackLayout;horizontal=1;startSize=26;horizontalStack=0;resizeParent=1;resizeParentMax=0;resizeLast=0;collapsible=1;marginBottom=0;whiteSpace=wrap;html=1;" vertex="1" parent="1">
          <mxGeometry x="720" y="590" width="160" height="86" as="geometry" />
        </mxCell>
        <mxCell id="YAH1u14mTammRpmIXEb5-18" value="- longitud: float" style="text;strokeColor=none;fillColor=none;align=left;verticalAlign=top;spacingLeft=4;spacingRight=4;overflow=hidden;rotatable=0;points=[[0,0.5],[1,0.5]];portConstraint=eastwest;whiteSpace=wrap;html=1;" vertex="1" parent="YAH1u14mTammRpmIXEb5-17">
          <mxGeometry y="26" width="160" height="26" as="geometry" />
        </mxCell>
        <mxCell id="YAH1u14mTammRpmIXEb5-73" value="- latitud: float" style="text;strokeColor=none;fillColor=none;align=left;verticalAlign=top;spacingLeft=4;spacingRight=4;overflow=hidden;rotatable=0;points=[[0,0.5],[1,0.5]];portConstraint=eastwest;whiteSpace=wrap;html=1;" vertex="1" parent="YAH1u14mTammRpmIXEb5-17">
          <mxGeometry y="52" width="160" height="26" as="geometry" />
        </mxCell>
        <mxCell id="YAH1u14mTammRpmIXEb5-20" value="" style="line;strokeWidth=1;fillColor=none;align=left;verticalAlign=middle;spacingTop=-1;spacingLeft=3;spacingRight=3;rotatable=0;labelPosition=right;points=[];portConstraint=eastwest;strokeColor=inherit;" vertex="1" parent="YAH1u14mTammRpmIXEb5-17">
          <mxGeometry y="78" width="160" height="8" as="geometry" />
        </mxCell>
        <mxCell id="YAH1u14mTammRpmIXEb5-21" style="edgeStyle=orthogonalEdgeStyle;rounded=0;orthogonalLoop=1;jettySize=auto;html=1;exitX=1.006;exitY=0.269;exitDx=0;exitDy=0;exitPerimeter=0;entryX=0.5;entryY=1;entryDx=0;entryDy=0;" edge="1" parent="1" source="YAH1u14mTammRpmIXEb5-43" target="YAH1u14mTammRpmIXEb5-17">
          <mxGeometry relative="1" as="geometry">
            <mxPoint x="660" y="686" as="sourcePoint" />
            <mxPoint x="800" y="500" as="targetPoint" />
          </mxGeometry>
        </mxCell>
        <mxCell id="YAH1u14mTammRpmIXEb5-22" value="SolicitadorRepetidor" style="swimlane;fontStyle=1;align=center;verticalAlign=top;childLayout=stackLayout;horizontal=1;startSize=26;horizontalStack=0;resizeParent=1;resizeParentMax=0;resizeLast=0;collapsible=1;marginBottom=0;whiteSpace=wrap;html=1;" vertex="1" parent="1">
          <mxGeometry x="50" y="400" width="210" height="86" as="geometry" />
        </mxCell>
        <mxCell id="YAH1u14mTammRpmIXEb5-23" value="- email: String" style="text;strokeColor=none;fillColor=none;align=left;verticalAlign=top;spacingLeft=4;spacingRight=4;overflow=hidden;rotatable=0;points=[[0,0.5],[1,0.5]];portConstraint=eastwest;whiteSpace=wrap;html=1;" vertex="1" parent="YAH1u14mTammRpmIXEb5-22">
          <mxGeometry y="26" width="210" height="26" as="geometry" />
        </mxCell>
        <mxCell id="YAH1u14mTammRpmIXEb5-24" value="" style="line;strokeWidth=1;fillColor=none;align=left;verticalAlign=middle;spacingTop=-1;spacingLeft=3;spacingRight=3;rotatable=0;labelPosition=right;points=[];portConstraint=eastwest;strokeColor=inherit;" vertex="1" parent="YAH1u14mTammRpmIXEb5-22">
          <mxGeometry y="52" width="210" height="8" as="geometry" />
        </mxCell>
        <mxCell id="YAH1u14mTammRpmIXEb5-25" value="+ solicitarNuevoRepetidor(): boolean" style="text;strokeColor=none;fillColor=none;align=left;verticalAlign=top;spacingLeft=4;spacingRight=4;overflow=hidden;rotatable=0;points=[[0,0.5],[1,0.5]];portConstraint=eastwest;whiteSpace=wrap;html=1;" vertex="1" parent="YAH1u14mTammRpmIXEb5-22">
          <mxGeometry y="60" width="210" height="26" as="geometry" />
        </mxCell>
        <mxCell id="YAH1u14mTammRpmIXEb5-26" style="edgeStyle=orthogonalEdgeStyle;rounded=0;orthogonalLoop=1;jettySize=auto;html=1;entryX=0.652;entryY=1.115;entryDx=0;entryDy=0;entryPerimeter=0;dashed=1;exitX=0;exitY=0.5;exitDx=0;exitDy=0;" edge="1" parent="1" source="YAH1u14mTammRpmIXEb5-42">
          <mxGeometry relative="1" as="geometry">
            <mxPoint x="363.08" y="662.01" as="sourcePoint" />
            <mxPoint x="150.00000000000006" y="486" as="targetPoint" />
          </mxGeometry>
        </mxCell>
        <mxCell id="YAH1u14mTammRpmIXEb5-27" style="edgeStyle=orthogonalEdgeStyle;rounded=0;orthogonalLoop=1;jettySize=auto;html=1;entryX=0;entryY=0.5;entryDx=0;entryDy=0;" edge="1" parent="1" source="YAH1u14mTammRpmIXEb5-30" target="YAH1u14mTammRpmIXEb5-18">
          <mxGeometry relative="1" as="geometry">
            <mxPoint x="723.04" y="479.9960000000001" as="targetPoint" />
          </mxGeometry>
        </mxCell>
        <mxCell id="YAH1u14mTammRpmIXEb5-28" style="edgeStyle=orthogonalEdgeStyle;rounded=0;orthogonalLoop=1;jettySize=auto;html=1;entryX=0.75;entryY=1;entryDx=0;entryDy=0;" edge="1" parent="1" source="YAH1u14mTammRpmIXEb5-30" target="YAH1u14mTammRpmIXEb5-2">
          <mxGeometry relative="1" as="geometry">
            <mxPoint x="507.25" y="296.98800000000006" as="targetPoint" />
          </mxGeometry>
        </mxCell>
        <mxCell id="YAH1u14mTammRpmIXEb5-29" style="edgeStyle=orthogonalEdgeStyle;rounded=0;orthogonalLoop=1;jettySize=auto;html=1;entryX=0;entryY=0.5;entryDx=0;entryDy=0;" edge="1" parent="1" source="YAH1u14mTammRpmIXEb5-30" target="YAH1u14mTammRpmIXEb5-13">
          <mxGeometry relative="1" as="geometry">
            <Array as="points">
              <mxPoint x="560" y="211" />
            </Array>
          </mxGeometry>
        </mxCell>
        <mxCell id="YAH1u14mTammRpmIXEb5-143" style="edgeStyle=orthogonalEdgeStyle;rounded=0;orthogonalLoop=1;jettySize=auto;html=1;entryX=-0.008;entryY=0.278;entryDx=0;entryDy=0;entryPerimeter=0;" edge="1" parent="1" source="YAH1u14mTammRpmIXEb5-30" target="YAH1u14mTammRpmIXEb5-102">
          <mxGeometry relative="1" as="geometry">
            <Array as="points">
              <mxPoint x="665" y="460" />
              <mxPoint x="665" y="414" />
            </Array>
          </mxGeometry>
        </mxCell>
        <mxCell id="YAH1u14mTammRpmIXEb5-30" value="Presupuesto" style="swimlane;fontStyle=1;align=center;verticalAlign=top;childLayout=stackLayout;horizontal=1;startSize=26;horizontalStack=0;resizeParent=1;resizeParentMax=0;resizeLast=0;collapsible=1;marginBottom=0;whiteSpace=wrap;html=1;" vertex="1" parent="1">
          <mxGeometry x="400" y="390" width="180" height="242" as="geometry" />
        </mxCell>
        <mxCell id="YAH1u14mTammRpmIXEb5-31" value="- servicio: Servicio" style="text;strokeColor=none;fillColor=none;align=left;verticalAlign=top;spacingLeft=4;spacingRight=4;overflow=hidden;rotatable=0;points=[[0,0.5],[1,0.5]];portConstraint=eastwest;whiteSpace=wrap;html=1;" vertex="1" parent="YAH1u14mTammRpmIXEb5-30">
          <mxGeometry y="26" width="180" height="26" as="geometry" />
        </mxCell>
        <mxCell id="YAH1u14mTammRpmIXEb5-32" value="- cliente: Cliente" style="text;strokeColor=none;fillColor=none;align=left;verticalAlign=top;spacingLeft=4;spacingRight=4;overflow=hidden;rotatable=0;points=[[0,0.5],[1,0.5]];portConstraint=eastwest;whiteSpace=wrap;html=1;" vertex="1" parent="YAH1u14mTammRpmIXEb5-30">
          <mxGeometry y="52" width="180" height="26" as="geometry" />
        </mxCell>
        <mxCell id="YAH1u14mTammRpmIXEb5-33" value="- coordenada: Coordenada" style="text;strokeColor=none;fillColor=none;align=left;verticalAlign=top;spacingLeft=4;spacingRight=4;overflow=hidden;rotatable=0;points=[[0,0.5],[1,0.5]];portConstraint=eastwest;whiteSpace=wrap;html=1;" vertex="1" parent="YAH1u14mTammRpmIXEb5-30">
          <mxGeometry y="78" width="180" height="26" as="geometry" />
        </mxCell>
        <mxCell id="YAH1u14mTammRpmIXEb5-34" value="- estado: Estado" style="text;strokeColor=none;fillColor=none;align=left;verticalAlign=top;spacingLeft=4;spacingRight=4;overflow=hidden;rotatable=0;points=[[0,0.5],[1,0.5]];portConstraint=eastwest;whiteSpace=wrap;html=1;" vertex="1" parent="YAH1u14mTammRpmIXEb5-30">
          <mxGeometry y="104" width="180" height="26" as="geometry" />
        </mxCell>
        <mxCell id="YAH1u14mTammRpmIXEb5-35" value="- costoInstalacion: float" style="text;strokeColor=none;fillColor=none;align=left;verticalAlign=top;spacingLeft=4;spacingRight=4;overflow=hidden;rotatable=0;points=[[0,0.5],[1,0.5]];portConstraint=eastwest;whiteSpace=wrap;html=1;" vertex="1" parent="YAH1u14mTammRpmIXEb5-30">
          <mxGeometry y="130" width="180" height="26" as="geometry" />
        </mxCell>
        <mxCell id="YAH1u14mTammRpmIXEb5-36" value="- abonoMensual: float" style="text;strokeColor=none;fillColor=none;align=left;verticalAlign=top;spacingLeft=4;spacingRight=4;overflow=hidden;rotatable=0;points=[[0,0.5],[1,0.5]];portConstraint=eastwest;whiteSpace=wrap;html=1;" vertex="1" parent="YAH1u14mTammRpmIXEb5-30">
          <mxGeometry y="156" width="180" height="26" as="geometry" />
        </mxCell>
        <mxCell id="YAH1u14mTammRpmIXEb5-37" value="- fecha: LocalDate" style="text;strokeColor=none;fillColor=none;align=left;verticalAlign=top;spacingLeft=4;spacingRight=4;overflow=hidden;rotatable=0;points=[[0,0.5],[1,0.5]];portConstraint=eastwest;whiteSpace=wrap;html=1;" vertex="1" parent="YAH1u14mTammRpmIXEb5-30">
          <mxGeometry y="182" width="180" height="26" as="geometry" />
        </mxCell>
        <mxCell id="YAH1u14mTammRpmIXEb5-38" value="" style="line;strokeWidth=1;fillColor=none;align=left;verticalAlign=middle;spacingTop=-1;spacingLeft=3;spacingRight=3;rotatable=0;labelPosition=right;points=[];portConstraint=eastwest;strokeColor=inherit;" vertex="1" parent="YAH1u14mTammRpmIXEb5-30">
          <mxGeometry y="208" width="180" height="8" as="geometry" />
        </mxCell>
        <mxCell id="YAH1u14mTammRpmIXEb5-39" value="+ cambiarEstado(Estado): void" style="text;strokeColor=none;fillColor=none;align=left;verticalAlign=top;spacingLeft=4;spacingRight=4;overflow=hidden;rotatable=0;points=[[0,0.5],[1,0.5]];portConstraint=eastwest;whiteSpace=wrap;html=1;" vertex="1" parent="YAH1u14mTammRpmIXEb5-30">
          <mxGeometry y="216" width="180" height="26" as="geometry" />
        </mxCell>
        <mxCell id="YAH1u14mTammRpmIXEb5-40" value="Repetidor" style="swimlane;fontStyle=1;align=center;verticalAlign=top;childLayout=stackLayout;horizontal=1;startSize=26;horizontalStack=0;resizeParent=1;resizeParentMax=0;resizeLast=0;collapsible=1;marginBottom=0;whiteSpace=wrap;html=1;" vertex="1" parent="1">
          <mxGeometry x="400" y="690" width="180" height="216" as="geometry" />
        </mxCell>
        <mxCell id="YAH1u14mTammRpmIXEb5-41" value="- coordenada: Coordenada" style="text;strokeColor=none;fillColor=none;align=left;verticalAlign=top;spacingLeft=4;spacingRight=4;overflow=hidden;rotatable=0;points=[[0,0.5],[1,0.5]];portConstraint=eastwest;whiteSpace=wrap;html=1;" vertex="1" parent="YAH1u14mTammRpmIXEb5-40">
          <mxGeometry y="26" width="180" height="26" as="geometry" />
        </mxCell>
        <mxCell id="YAH1u14mTammRpmIXEb5-42" value="- nombre: String" style="text;strokeColor=none;fillColor=none;align=left;verticalAlign=top;spacingLeft=4;spacingRight=4;overflow=hidden;rotatable=0;points=[[0,0.5],[1,0.5]];portConstraint=eastwest;whiteSpace=wrap;html=1;" vertex="1" parent="YAH1u14mTammRpmIXEb5-40">
          <mxGeometry y="52" width="180" height="26" as="geometry" />
        </mxCell>
        <mxCell id="YAH1u14mTammRpmIXEb5-43" value="- direccionMac: String" style="text;strokeColor=none;fillColor=none;align=left;verticalAlign=top;spacingLeft=4;spacingRight=4;overflow=hidden;rotatable=0;points=[[0,0.5],[1,0.5]];portConstraint=eastwest;whiteSpace=wrap;html=1;" vertex="1" parent="YAH1u14mTammRpmIXEb5-40">
          <mxGeometry y="78" width="180" height="26" as="geometry" />
        </mxCell>
        <mxCell id="YAH1u14mTammRpmIXEb5-70" value="- cantMaxConexiones : Int" style="text;strokeColor=none;fillColor=none;align=left;verticalAlign=top;spacingLeft=4;spacingRight=4;overflow=hidden;rotatable=0;points=[[0,0.5],[1,0.5]];portConstraint=eastwest;whiteSpace=wrap;html=1;" vertex="1" parent="YAH1u14mTammRpmIXEb5-40">
          <mxGeometry y="104" width="180" height="26" as="geometry" />
        </mxCell>
        <mxCell id="YAH1u14mTammRpmIXEb5-71" value="- cantConexiones : Int" style="text;strokeColor=none;fillColor=none;align=left;verticalAlign=top;spacingLeft=4;spacingRight=4;overflow=hidden;rotatable=0;points=[[0,0.5],[1,0.5]];portConstraint=eastwest;whiteSpace=wrap;html=1;" vertex="1" parent="YAH1u14mTammRpmIXEb5-40">
          <mxGeometry y="130" width="180" height="26" as="geometry" />
        </mxCell>
        <mxCell id="YAH1u14mTammRpmIXEb5-72" value="- radioAlcance : Int" style="text;strokeColor=none;fillColor=none;align=left;verticalAlign=top;spacingLeft=4;spacingRight=4;overflow=hidden;rotatable=0;points=[[0,0.5],[1,0.5]];portConstraint=eastwest;whiteSpace=wrap;html=1;" vertex="1" parent="YAH1u14mTammRpmIXEb5-40">
          <mxGeometry y="156" width="180" height="26" as="geometry" />
        </mxCell>
        <mxCell id="YAH1u14mTammRpmIXEb5-44" value="" style="line;strokeWidth=1;fillColor=none;align=left;verticalAlign=middle;spacingTop=-1;spacingLeft=3;spacingRight=3;rotatable=0;labelPosition=right;points=[];portConstraint=eastwest;strokeColor=inherit;" vertex="1" parent="YAH1u14mTammRpmIXEb5-40">
          <mxGeometry y="182" width="180" height="8" as="geometry" />
        </mxCell>
        <mxCell id="YAH1u14mTammRpmIXEb5-45" value="+ admiteConexion(): boolean" style="text;strokeColor=none;fillColor=none;align=left;verticalAlign=top;spacingLeft=4;spacingRight=4;overflow=hidden;rotatable=0;points=[[0,0.5],[1,0.5]];portConstraint=eastwest;whiteSpace=wrap;html=1;" vertex="1" parent="YAH1u14mTammRpmIXEb5-40">
          <mxGeometry y="190" width="180" height="26" as="geometry" />
        </mxCell>
        <mxCell id="YAH1u14mTammRpmIXEb5-46" style="edgeStyle=orthogonalEdgeStyle;rounded=0;orthogonalLoop=1;jettySize=auto;html=1;entryX=0.468;entryY=-0.014;entryDx=0;entryDy=0;exitX=0.461;exitY=-0.017;exitDx=0;exitDy=0;exitPerimeter=0;entryPerimeter=0;" edge="1" parent="1" source="YAH1u14mTammRpmIXEb5-47" target="YAH1u14mTammRpmIXEb5-10">
          <mxGeometry relative="1" as="geometry">
            <mxPoint x="140.00000000000009" y="83.95000000000005" as="sourcePoint" />
            <mxPoint x="741.08" y="90" as="targetPoint" />
            <Array as="points">
              <mxPoint x="148" y="70" />
              <mxPoint x="747" y="70" />
            </Array>
          </mxGeometry>
        </mxCell>
        <mxCell id="YAH1u14mTammRpmIXEb5-47" value="ServicioContratado" style="swimlane;fontStyle=1;align=center;verticalAlign=top;childLayout=stackLayout;horizontal=1;startSize=26;horizontalStack=0;resizeParent=1;resizeParentMax=0;resizeLast=0;collapsible=1;marginBottom=0;whiteSpace=wrap;html=1;" vertex="1" parent="1">
          <mxGeometry x="65" y="120" width="180" height="242" as="geometry" />
        </mxCell>
        <mxCell id="YAH1u14mTammRpmIXEb5-48" value="- servicio: Servicio" style="text;strokeColor=none;fillColor=none;align=left;verticalAlign=top;spacingLeft=4;spacingRight=4;overflow=hidden;rotatable=0;points=[[0,0.5],[1,0.5]];portConstraint=eastwest;whiteSpace=wrap;html=1;" vertex="1" parent="YAH1u14mTammRpmIXEb5-47">
          <mxGeometry y="26" width="180" height="26" as="geometry" />
        </mxCell>
        <mxCell id="YAH1u14mTammRpmIXEb5-49" value="- cliente: Cliente" style="text;strokeColor=none;fillColor=none;align=left;verticalAlign=top;spacingLeft=4;spacingRight=4;overflow=hidden;rotatable=0;points=[[0,0.5],[1,0.5]];portConstraint=eastwest;whiteSpace=wrap;html=1;" vertex="1" parent="YAH1u14mTammRpmIXEb5-47">
          <mxGeometry y="52" width="180" height="26" as="geometry" />
        </mxCell>
        <mxCell id="YAH1u14mTammRpmIXEb5-50" value="- coordenada: Coordenada" style="text;strokeColor=none;fillColor=none;align=left;verticalAlign=top;spacingLeft=4;spacingRight=4;overflow=hidden;rotatable=0;points=[[0,0.5],[1,0.5]];portConstraint=eastwest;whiteSpace=wrap;html=1;" vertex="1" parent="YAH1u14mTammRpmIXEb5-47">
          <mxGeometry y="78" width="180" height="26" as="geometry" />
        </mxCell>
        <mxCell id="YAH1u14mTammRpmIXEb5-51" value="- repetidor: Repetidor" style="text;strokeColor=none;fillColor=none;align=left;verticalAlign=top;spacingLeft=4;spacingRight=4;overflow=hidden;rotatable=0;points=[[0,0.5],[1,0.5]];portConstraint=eastwest;whiteSpace=wrap;html=1;" vertex="1" parent="YAH1u14mTammRpmIXEb5-47">
          <mxGeometry y="104" width="180" height="26" as="geometry" />
        </mxCell>
        <mxCell id="YAH1u14mTammRpmIXEb5-52" value="- presupuesto: Presupuesto" style="text;strokeColor=none;fillColor=none;align=left;verticalAlign=top;spacingLeft=4;spacingRight=4;overflow=hidden;rotatable=0;points=[[0,0.5],[1,0.5]];portConstraint=eastwest;whiteSpace=wrap;html=1;" vertex="1" parent="YAH1u14mTammRpmIXEb5-47">
          <mxGeometry y="130" width="180" height="26" as="geometry" />
        </mxCell>
        <mxCell id="YAH1u14mTammRpmIXEb5-53" value="- precioBaseContratado: float" style="text;strokeColor=none;fillColor=none;align=left;verticalAlign=top;spacingLeft=4;spacingRight=4;overflow=hidden;rotatable=0;points=[[0,0.5],[1,0.5]];portConstraint=eastwest;whiteSpace=wrap;html=1;" vertex="1" parent="YAH1u14mTammRpmIXEb5-47">
          <mxGeometry y="156" width="180" height="26" as="geometry" />
        </mxCell>
        <mxCell id="YAH1u14mTammRpmIXEb5-54" value="- precioVariable: float" style="text;strokeColor=none;fillColor=none;align=left;verticalAlign=top;spacingLeft=4;spacingRight=4;overflow=hidden;rotatable=0;points=[[0,0.5],[1,0.5]];portConstraint=eastwest;whiteSpace=wrap;html=1;" vertex="1" parent="YAH1u14mTammRpmIXEb5-47">
          <mxGeometry y="182" width="180" height="26" as="geometry" />
        </mxCell>
        <mxCell id="YAH1u14mTammRpmIXEb5-55" value="" style="line;strokeWidth=1;fillColor=none;align=left;verticalAlign=middle;spacingTop=-1;spacingLeft=3;spacingRight=3;rotatable=0;labelPosition=right;points=[];portConstraint=eastwest;strokeColor=inherit;" vertex="1" parent="YAH1u14mTammRpmIXEb5-47">
          <mxGeometry y="208" width="180" height="8" as="geometry" />
        </mxCell>
        <mxCell id="YAH1u14mTammRpmIXEb5-56" value="+ cambiarEstado(Estado): void" style="text;strokeColor=none;fillColor=none;align=left;verticalAlign=top;spacingLeft=4;spacingRight=4;overflow=hidden;rotatable=0;points=[[0,0.5],[1,0.5]];portConstraint=eastwest;whiteSpace=wrap;html=1;" vertex="1" parent="YAH1u14mTammRpmIXEb5-47">
          <mxGeometry y="216" width="180" height="26" as="geometry" />
        </mxCell>
        <mxCell id="YAH1u14mTammRpmIXEb5-57" style="edgeStyle=orthogonalEdgeStyle;rounded=0;orthogonalLoop=1;jettySize=auto;html=1;entryX=0.156;entryY=0.012;entryDx=0;entryDy=0;entryPerimeter=0;" edge="1" parent="1" source="YAH1u14mTammRpmIXEb5-54" target="YAH1u14mTammRpmIXEb5-30">
          <mxGeometry relative="1" as="geometry" />
        </mxCell>
        <mxCell id="YAH1u14mTammRpmIXEb5-58" style="edgeStyle=orthogonalEdgeStyle;rounded=0;orthogonalLoop=1;jettySize=auto;html=1;exitX=1;exitY=0.5;exitDx=0;exitDy=0;entryX=0;entryY=0.5;entryDx=0;entryDy=0;" edge="1" parent="1" source="YAH1u14mTammRpmIXEb5-49" target="YAH1u14mTammRpmIXEb5-4">
          <mxGeometry relative="1" as="geometry" />
        </mxCell>
        <mxCell id="YAH1u14mTammRpmIXEb5-59" value="&amp;lt;&amp;lt;Enum&amp;gt;&amp;gt;&lt;br&gt;TipoDocumento" style="swimlane;fontStyle=1;align=center;verticalAlign=top;childLayout=stackLayout;horizontal=1;startSize=40;horizontalStack=0;resizeParent=1;resizeParentMax=0;resizeLast=0;collapsible=1;marginBottom=0;whiteSpace=wrap;html=1;" vertex="1" parent="1">
          <mxGeometry x="350" y="-190" width="190" height="100" as="geometry" />
        </mxCell>
        <mxCell id="YAH1u14mTammRpmIXEb5-60" value="DNI" style="text;strokeColor=none;fillColor=none;align=left;verticalAlign=top;spacingLeft=4;spacingRight=4;overflow=hidden;rotatable=0;points=[[0,0.5],[1,0.5]];portConstraint=eastwest;whiteSpace=wrap;html=1;" vertex="1" parent="YAH1u14mTammRpmIXEb5-59">
          <mxGeometry y="40" width="190" height="26" as="geometry" />
        </mxCell>
        <mxCell id="YAH1u14mTammRpmIXEb5-61" value="PASAPORTE" style="text;strokeColor=none;fillColor=none;align=left;verticalAlign=top;spacingLeft=4;spacingRight=4;overflow=hidden;rotatable=0;points=[[0,0.5],[1,0.5]];portConstraint=eastwest;whiteSpace=wrap;html=1;" vertex="1" parent="YAH1u14mTammRpmIXEb5-59">
          <mxGeometry y="66" width="190" height="26" as="geometry" />
        </mxCell>
        <mxCell id="YAH1u14mTammRpmIXEb5-62" value="" style="line;strokeWidth=1;fillColor=none;align=left;verticalAlign=middle;spacingTop=-1;spacingLeft=3;spacingRight=3;rotatable=0;labelPosition=right;points=[];portConstraint=eastwest;strokeColor=inherit;" vertex="1" parent="YAH1u14mTammRpmIXEb5-59">
          <mxGeometry y="92" width="190" height="8" as="geometry" />
        </mxCell>
        <mxCell id="YAH1u14mTammRpmIXEb5-63" value="&amp;lt;&amp;lt;Enum&amp;gt;&amp;gt;&lt;br&gt;Estado" style="swimlane;fontStyle=1;align=center;verticalAlign=top;childLayout=stackLayout;horizontal=1;startSize=40;horizontalStack=0;resizeParent=1;resizeParentMax=0;resizeLast=0;collapsible=1;marginBottom=0;whiteSpace=wrap;html=1;" vertex="1" parent="1">
          <mxGeometry x="190" y="580" width="190" height="152" as="geometry" />
        </mxCell>
        <mxCell id="YAH1u14mTammRpmIXEb5-64" value="ACTIVO" style="text;strokeColor=none;fillColor=none;align=left;verticalAlign=top;spacingLeft=4;spacingRight=4;overflow=hidden;rotatable=0;points=[[0,0.5],[1,0.5]];portConstraint=eastwest;whiteSpace=wrap;html=1;" vertex="1" parent="YAH1u14mTammRpmIXEb5-63">
          <mxGeometry y="40" width="190" height="26" as="geometry" />
        </mxCell>
        <mxCell id="YAH1u14mTammRpmIXEb5-65" value="VENCIDO" style="text;strokeColor=none;fillColor=none;align=left;verticalAlign=top;spacingLeft=4;spacingRight=4;overflow=hidden;rotatable=0;points=[[0,0.5],[1,0.5]];portConstraint=eastwest;whiteSpace=wrap;html=1;" vertex="1" parent="YAH1u14mTammRpmIXEb5-63">
          <mxGeometry y="66" width="190" height="26" as="geometry" />
        </mxCell>
        <mxCell id="YAH1u14mTammRpmIXEb5-66" value="APROBADO" style="text;strokeColor=none;fillColor=none;align=left;verticalAlign=top;spacingLeft=4;spacingRight=4;overflow=hidden;rotatable=0;points=[[0,0.5],[1,0.5]];portConstraint=eastwest;whiteSpace=wrap;html=1;" vertex="1" parent="YAH1u14mTammRpmIXEb5-63">
          <mxGeometry y="92" width="190" height="26" as="geometry" />
        </mxCell>
        <mxCell id="YAH1u14mTammRpmIXEb5-67" value="RECHAZADO" style="text;strokeColor=none;fillColor=none;align=left;verticalAlign=top;spacingLeft=4;spacingRight=4;overflow=hidden;rotatable=0;points=[[0,0.5],[1,0.5]];portConstraint=eastwest;whiteSpace=wrap;html=1;" vertex="1" parent="YAH1u14mTammRpmIXEb5-63">
          <mxGeometry y="118" width="190" height="26" as="geometry" />
        </mxCell>
        <mxCell id="YAH1u14mTammRpmIXEb5-68" value="" style="line;strokeWidth=1;fillColor=none;align=left;verticalAlign=middle;spacingTop=-1;spacingLeft=3;spacingRight=3;rotatable=0;labelPosition=right;points=[];portConstraint=eastwest;strokeColor=inherit;" vertex="1" parent="YAH1u14mTammRpmIXEb5-63">
          <mxGeometry y="144" width="190" height="8" as="geometry" />
        </mxCell>
        <mxCell id="YAH1u14mTammRpmIXEb5-69" style="edgeStyle=orthogonalEdgeStyle;rounded=0;orthogonalLoop=1;jettySize=auto;html=1;" edge="1" parent="1" source="YAH1u14mTammRpmIXEb5-33" target="YAH1u14mTammRpmIXEb5-63">
          <mxGeometry relative="1" as="geometry" />
        </mxCell>
        <mxCell id="YAH1u14mTammRpmIXEb5-75" value="AdapterDistanceMatrix" style="swimlane;fontStyle=1;align=center;verticalAlign=top;childLayout=stackLayout;horizontal=1;startSize=26;horizontalStack=0;resizeParent=1;resizeParentMax=0;resizeLast=0;collapsible=1;marginBottom=0;whiteSpace=wrap;html=1;" vertex="1" parent="1">
          <mxGeometry x="1940" y="536" width="380" height="60" as="geometry" />
        </mxCell>
        <mxCell id="YAH1u14mTammRpmIXEb5-83" value="" style="line;strokeWidth=1;fillColor=none;align=left;verticalAlign=middle;spacingTop=-1;spacingLeft=3;spacingRight=3;rotatable=0;labelPosition=right;points=[];portConstraint=eastwest;strokeColor=inherit;" vertex="1" parent="YAH1u14mTammRpmIXEb5-75">
          <mxGeometry y="26" width="380" height="8" as="geometry" />
        </mxCell>
        <mxCell id="YAH1u14mTammRpmIXEb5-84" value="+ obtenerDistancia(coord1 : Coordenada, coord2 : Coordenada):float" style="text;strokeColor=none;fillColor=none;align=left;verticalAlign=top;spacingLeft=4;spacingRight=4;overflow=hidden;rotatable=0;points=[[0,0.5],[1,0.5]];portConstraint=eastwest;whiteSpace=wrap;html=1;" vertex="1" parent="YAH1u14mTammRpmIXEb5-75">
          <mxGeometry y="34" width="380" height="26" as="geometry" />
        </mxCell>
        <mxCell id="YAH1u14mTammRpmIXEb5-96" value="AdapterUTNGeoHMax" style="swimlane;fontStyle=1;align=center;verticalAlign=top;childLayout=stackLayout;horizontal=1;startSize=26;horizontalStack=0;resizeParent=1;resizeParentMax=0;resizeLast=0;collapsible=1;marginBottom=0;whiteSpace=wrap;html=1;" vertex="1" parent="1">
          <mxGeometry x="1410" y="636" width="290" height="60" as="geometry" />
        </mxCell>
        <mxCell id="YAH1u14mTammRpmIXEb5-97" value="" style="line;strokeWidth=1;fillColor=none;align=left;verticalAlign=middle;spacingTop=-1;spacingLeft=3;spacingRight=3;rotatable=0;labelPosition=right;points=[];portConstraint=eastwest;strokeColor=inherit;" vertex="1" parent="YAH1u14mTammRpmIXEb5-96">
          <mxGeometry y="26" width="290" height="8" as="geometry" />
        </mxCell>
        <mxCell id="YAH1u14mTammRpmIXEb5-98" value="+ calcularAltura(latitud : float, longitud : float) : float" style="text;strokeColor=none;fillColor=none;align=left;verticalAlign=top;spacingLeft=4;spacingRight=4;overflow=hidden;rotatable=0;points=[[0,0.5],[1,0.5]];portConstraint=eastwest;whiteSpace=wrap;html=1;" vertex="1" parent="YAH1u14mTammRpmIXEb5-96">
          <mxGeometry y="34" width="290" height="26" as="geometry" />
        </mxCell>
        <mxCell id="YAH1u14mTammRpmIXEb5-131" style="edgeStyle=orthogonalEdgeStyle;rounded=0;orthogonalLoop=1;jettySize=auto;html=1;entryX=0.423;entryY=-0.012;entryDx=0;entryDy=0;entryPerimeter=0;exitX=0.75;exitY=0;exitDx=0;exitDy=0;" edge="1" parent="1" source="YAH1u14mTammRpmIXEb5-102" target="YAH1u14mTammRpmIXEb5-109">
          <mxGeometry relative="1" as="geometry">
            <mxPoint x="1190" y="-10" as="targetPoint" />
            <mxPoint x="1350" y="60" as="sourcePoint" />
          </mxGeometry>
        </mxCell>
        <mxCell id="YAH1u14mTammRpmIXEb5-132" value="*" style="edgeLabel;html=1;align=center;verticalAlign=middle;resizable=0;points=[];" vertex="1" connectable="0" parent="YAH1u14mTammRpmIXEb5-131">
          <mxGeometry x="-0.4154" y="3" relative="1" as="geometry">
            <mxPoint as="offset" />
          </mxGeometry>
        </mxCell>
        <mxCell id="YAH1u14mTammRpmIXEb5-102" value="CalculadoraRecargo" style="swimlane;fontStyle=1;align=center;verticalAlign=top;childLayout=stackLayout;horizontal=1;startSize=26;horizontalStack=0;resizeParent=1;resizeParentMax=0;resizeLast=0;collapsible=1;marginBottom=0;whiteSpace=wrap;html=1;" vertex="1" parent="1">
          <mxGeometry x="750" y="390" width="500" height="86" as="geometry" />
        </mxCell>
        <mxCell id="YAH1u14mTammRpmIXEb5-103" value="- recargos : List&amp;lt;Recargos&amp;gt;" style="text;strokeColor=none;fillColor=none;align=left;verticalAlign=top;spacingLeft=4;spacingRight=4;overflow=hidden;rotatable=0;points=[[0,0.5],[1,0.5]];portConstraint=eastwest;whiteSpace=wrap;html=1;" vertex="1" parent="YAH1u14mTammRpmIXEb5-102">
          <mxGeometry y="26" width="500" height="26" as="geometry" />
        </mxCell>
        <mxCell id="YAH1u14mTammRpmIXEb5-107" value="" style="line;strokeWidth=1;fillColor=none;align=left;verticalAlign=middle;spacingTop=-1;spacingLeft=3;spacingRight=3;rotatable=0;labelPosition=right;points=[];portConstraint=eastwest;strokeColor=inherit;" vertex="1" parent="YAH1u14mTammRpmIXEb5-102">
          <mxGeometry y="52" width="500" height="8" as="geometry" />
        </mxCell>
        <mxCell id="YAH1u14mTammRpmIXEb5-108" value="+ calcularCosto(coorServ : Coordenada, coorCliente : Coordenada): float" style="text;strokeColor=none;fillColor=none;align=left;verticalAlign=top;spacingLeft=4;spacingRight=4;overflow=hidden;rotatable=0;points=[[0,0.5],[1,0.5]];portConstraint=eastwest;whiteSpace=wrap;html=1;" vertex="1" parent="YAH1u14mTammRpmIXEb5-102">
          <mxGeometry y="60" width="500" height="26" as="geometry" />
        </mxCell>
        <mxCell id="YAH1u14mTammRpmIXEb5-109" value="&amp;lt;&amp;lt; Interface &amp;gt;&amp;gt;&amp;nbsp;&lt;br&gt;Recargo" style="swimlane;fontStyle=1;align=center;verticalAlign=top;childLayout=stackLayout;horizontal=1;startSize=40;horizontalStack=0;resizeParent=1;resizeParentMax=0;resizeLast=0;collapsible=1;marginBottom=0;whiteSpace=wrap;html=1;" vertex="1" parent="1">
          <mxGeometry x="1340" y="326" width="430" height="74" as="geometry" />
        </mxCell>
        <mxCell id="YAH1u14mTammRpmIXEb5-111" value="" style="line;strokeWidth=1;fillColor=none;align=left;verticalAlign=middle;spacingTop=-1;spacingLeft=3;spacingRight=3;rotatable=0;labelPosition=right;points=[];portConstraint=eastwest;strokeColor=inherit;" vertex="1" parent="YAH1u14mTammRpmIXEb5-109">
          <mxGeometry y="40" width="430" height="8" as="geometry" />
        </mxCell>
        <mxCell id="YAH1u14mTammRpmIXEb5-112" value="+ calcularRecargo(coorServ : Coordenada, coorCliente : Coordenada) : float" style="text;strokeColor=none;fillColor=none;align=left;verticalAlign=top;spacingLeft=4;spacingRight=4;overflow=hidden;rotatable=0;points=[[0,0.5],[1,0.5]];portConstraint=eastwest;whiteSpace=wrap;html=1;" vertex="1" parent="YAH1u14mTammRpmIXEb5-109">
          <mxGeometry y="48" width="430" height="26" as="geometry" />
        </mxCell>
        <mxCell id="YAH1u14mTammRpmIXEb5-140" style="edgeStyle=orthogonalEdgeStyle;rounded=0;orthogonalLoop=1;jettySize=auto;html=1;entryX=0.619;entryY=0.01;entryDx=0;entryDy=0;entryPerimeter=0;" edge="1" parent="1" source="YAH1u14mTammRpmIXEb5-121" target="YAH1u14mTammRpmIXEb5-96">
          <mxGeometry relative="1" as="geometry" />
        </mxCell>
        <mxCell id="YAH1u14mTammRpmIXEb5-121" value="RecargoPorAltura" style="swimlane;fontStyle=1;align=center;verticalAlign=top;childLayout=stackLayout;horizontal=1;startSize=25;horizontalStack=0;resizeParent=1;resizeParentMax=0;resizeLast=0;collapsible=1;marginBottom=0;whiteSpace=wrap;html=1;" vertex="1" parent="1">
          <mxGeometry x="1370" y="497" width="430" height="59" as="geometry" />
        </mxCell>
        <mxCell id="YAH1u14mTammRpmIXEb5-122" value="" style="line;strokeWidth=1;fillColor=none;align=left;verticalAlign=middle;spacingTop=-1;spacingLeft=3;spacingRight=3;rotatable=0;labelPosition=right;points=[];portConstraint=eastwest;strokeColor=inherit;" vertex="1" parent="YAH1u14mTammRpmIXEb5-121">
          <mxGeometry y="25" width="430" height="8" as="geometry" />
        </mxCell>
        <mxCell id="YAH1u14mTammRpmIXEb5-123" value="+ calcularRecargo(coorServ : Coordenada, coorCliente : Coordenada) : float" style="text;strokeColor=none;fillColor=none;align=left;verticalAlign=top;spacingLeft=4;spacingRight=4;overflow=hidden;rotatable=0;points=[[0,0.5],[1,0.5]];portConstraint=eastwest;whiteSpace=wrap;html=1;" vertex="1" parent="YAH1u14mTammRpmIXEb5-121">
          <mxGeometry y="33" width="430" height="26" as="geometry" />
        </mxCell>
        <mxCell id="YAH1u14mTammRpmIXEb5-141" style="edgeStyle=orthogonalEdgeStyle;rounded=0;orthogonalLoop=1;jettySize=auto;html=1;entryX=0.432;entryY=0.034;entryDx=0;entryDy=0;entryPerimeter=0;" edge="1" parent="1" source="YAH1u14mTammRpmIXEb5-127" target="YAH1u14mTammRpmIXEb5-75">
          <mxGeometry relative="1" as="geometry" />
        </mxCell>
        <mxCell id="YAH1u14mTammRpmIXEb5-127" value="RecargoPorDistancia" style="swimlane;fontStyle=1;align=center;verticalAlign=top;childLayout=stackLayout;horizontal=1;startSize=25;horizontalStack=0;resizeParent=1;resizeParentMax=0;resizeLast=0;collapsible=1;marginBottom=0;whiteSpace=wrap;html=1;" vertex="1" parent="1">
          <mxGeometry x="1890" y="406" width="430" height="59" as="geometry" />
        </mxCell>
        <mxCell id="YAH1u14mTammRpmIXEb5-128" value="" style="line;strokeWidth=1;fillColor=none;align=left;verticalAlign=middle;spacingTop=-1;spacingLeft=3;spacingRight=3;rotatable=0;labelPosition=right;points=[];portConstraint=eastwest;strokeColor=inherit;" vertex="1" parent="YAH1u14mTammRpmIXEb5-127">
          <mxGeometry y="25" width="430" height="8" as="geometry" />
        </mxCell>
        <mxCell id="YAH1u14mTammRpmIXEb5-129" value="+ calcularRecargo(coorServ : Coordenada, coorCliente : Coordenada) : float" style="text;strokeColor=none;fillColor=none;align=left;verticalAlign=top;spacingLeft=4;spacingRight=4;overflow=hidden;rotatable=0;points=[[0,0.5],[1,0.5]];portConstraint=eastwest;whiteSpace=wrap;html=1;" vertex="1" parent="YAH1u14mTammRpmIXEb5-127">
          <mxGeometry y="33" width="430" height="26" as="geometry" />
        </mxCell>
        <mxCell id="YAH1u14mTammRpmIXEb5-134" value="" style="endArrow=none;dashed=1;html=1;rounded=0;exitX=0.5;exitY=0;exitDx=0;exitDy=0;entryX=0;entryY=0.5;entryDx=0;entryDy=0;" edge="1" parent="1" source="YAH1u14mTammRpmIXEb5-127" target="YAH1u14mTammRpmIXEb5-135">
          <mxGeometry width="50" height="50" relative="1" as="geometry">
            <mxPoint x="2090" y="366" as="sourcePoint" />
            <mxPoint x="2120" y="256" as="targetPoint" />
            <Array as="points">
              <mxPoint x="2105" y="346" />
            </Array>
          </mxGeometry>
        </mxCell>
        <mxCell id="YAH1u14mTammRpmIXEb5-135" value="" style="triangle;whiteSpace=wrap;html=1;rotation=-180;" vertex="1" parent="1">
          <mxGeometry x="1770" y="336" width="30" height="20" as="geometry" />
        </mxCell>
        <mxCell id="YAH1u14mTammRpmIXEb5-138" value="" style="triangle;whiteSpace=wrap;html=1;rotation=-90;" vertex="1" parent="1">
          <mxGeometry x="1690" y="406" width="30" height="20" as="geometry" />
        </mxCell>
        <mxCell id="YAH1u14mTammRpmIXEb5-139" value="" style="endArrow=none;dashed=1;html=1;rounded=0;entryX=0;entryY=0.5;entryDx=0;entryDy=0;" edge="1" parent="1" target="YAH1u14mTammRpmIXEb5-138">
          <mxGeometry width="50" height="50" relative="1" as="geometry">
            <mxPoint x="1705" y="496" as="sourcePoint" />
            <mxPoint x="1690" y="416" as="targetPoint" />
          </mxGeometry>
        </mxCell>
      </root>
    </mxGraphModel>
  </diagram>
</mxfile>
